<svg width="127" height="34" viewBox="0 0 127 34" fill="none" xmlns="http://www.w3.org/2000/svg">
<g clip-path="url(#clip0_110_39839)">
<path d="M0 25.5H8.5V32C8.5 33.1046 7.60457 34 6.5 34H2C0.89543 34 0 33.1046 0 32V25.5Z" fill="#2BB2FE"/>
<rect y="17" width="8.5" height="8.5" fill="#2BB2FE"/>
<path d="M0 10.5C0 9.39543 0.895431 8.5 2 8.5H8.5V17H0V10.5Z" fill="#2BB2FE"/>
<path d="M8.5 2C8.5 0.89543 9.39543 0 10.5 0H17V8.5H8.5V2Z" fill="#883DCF"/>
<rect x="8.5" y="17" width="8.5" height="8.5" fill="#883DCF"/>
<path d="M17 0H23.5C24.6046 0 25.5 0.895431 25.5 2V8.5H17V0Z" fill="#F9C80E"/>
<path d="M17 17H25.5V23.5C25.5 24.6046 24.6046 25.5 23.5 25.5H17V17Z" fill="#F9C80E"/>
<path d="M25.5 8.5H32C33.1046 8.5 34 9.39543 34 10.5V15C34 16.1046 33.1046 17 32 17H25.5V8.5Z" fill="#F9C80E"/>
</g>
<path d="M48.1 26V8.648H54.256C55.504 8.648 56.62 8.864 57.604 9.296C58.596 9.72 59.376 10.348 59.944 11.18C60.512 12.012 60.796 13.036 60.796 14.252C60.796 15.396 60.536 16.376 60.016 17.192C59.504 18.008 58.788 18.632 57.868 19.064C56.948 19.496 55.872 19.712 54.64 19.712H51.064V26H48.1ZM51.04 17.372H54.568C55.584 17.372 56.412 17.068 57.052 16.46C57.7 15.852 58.024 15.06 58.024 14.084C58.024 13.092 57.688 12.324 57.016 11.78C56.344 11.228 55.5 10.952 54.484 10.952H51.04V17.372ZM63.4127 26V13.592H66.2088V26H63.4127ZM63.3647 11.42V8.66H66.2567V11.42H63.3647ZM68.7122 26L73.4762 19.544L69.1082 13.592H72.2042L75.0722 17.468L77.9402 13.592H81.0483L76.6443 19.544L81.4202 26H78.3242L75.0602 21.584L71.8082 26H68.7122ZM87.4598 26.18C86.6598 26.18 86.0198 26.08 85.5398 25.88C85.0598 25.68 84.6998 25.412 84.4598 25.076C84.2198 24.74 84.0638 24.364 83.9918 23.948C83.9198 23.524 83.8838 23.092 83.8838 22.652V8.168H86.7398V22.316C86.7398 22.852 86.8478 23.268 87.0638 23.564C87.2878 23.86 87.6478 24.032 88.1438 24.08L88.7678 24.104V25.94C88.5518 26.004 88.3318 26.06 88.1078 26.108C87.8838 26.156 87.6678 26.18 87.4598 26.18ZM95.2118 26.24C94.4198 26.24 93.7078 26.096 93.0758 25.808C92.4518 25.512 91.9598 25.092 91.5998 24.548C91.2478 23.996 91.0718 23.328 91.0718 22.544C91.0718 21.176 91.5638 20.144 92.5478 19.448C93.5398 18.752 95.1158 18.388 97.2758 18.356L99.1358 18.308V17.468C99.1358 16.812 98.9398 16.3 98.5478 15.932C98.1638 15.556 97.5638 15.372 96.7478 15.38C96.1398 15.388 95.5878 15.532 95.0918 15.812C94.5958 16.084 94.2678 16.544 94.1078 17.192H91.6238C91.6718 16.344 91.9158 15.636 92.3558 15.068C92.8038 14.492 93.4158 14.064 94.1918 13.784C94.9678 13.496 95.8638 13.352 96.8798 13.352C98.0638 13.352 99.0278 13.508 99.7718 13.82C100.516 14.132 101.064 14.584 101.416 15.176C101.768 15.76 101.944 16.468 101.944 17.3V26H99.4838L99.2438 23.768C98.8038 24.704 98.2398 25.352 97.5518 25.712C96.8718 26.064 96.0918 26.24 95.2118 26.24ZM96.1598 24.26C96.5198 24.26 96.8758 24.196 97.2278 24.068C97.5798 23.932 97.8958 23.752 98.1758 23.528C98.4638 23.296 98.6918 23.04 98.8598 22.76C99.0358 22.48 99.1278 22.188 99.1358 21.884V19.928L97.6118 19.952C96.8598 19.96 96.1998 20.04 95.6318 20.192C95.0718 20.344 94.6358 20.588 94.3238 20.924C94.0118 21.252 93.8558 21.692 93.8558 22.244C93.8558 22.876 94.0758 23.372 94.5158 23.732C94.9558 24.084 95.5038 24.26 96.1598 24.26ZM111.846 26.24C111.182 26.24 110.614 26.152 110.142 25.976C109.67 25.8 109.274 25.572 108.954 25.292C108.642 25.012 108.39 24.712 108.198 24.392C108.014 24.064 107.874 23.752 107.778 23.456L107.442 26H105.294V8.168H108.222V15.404C108.35 15.164 108.526 14.924 108.75 14.684C108.982 14.444 109.262 14.224 109.59 14.024C109.918 13.824 110.29 13.664 110.706 13.544C111.13 13.416 111.598 13.352 112.11 13.352C113.654 13.352 114.874 13.9 115.77 14.996C116.666 16.092 117.114 17.672 117.114 19.736C117.114 21.04 116.914 22.18 116.514 23.156C116.122 24.132 115.534 24.892 114.75 25.436C113.974 25.972 113.006 26.24 111.846 26.24ZM111.246 24.092C112.118 24.092 112.834 23.744 113.394 23.048C113.954 22.352 114.234 21.224 114.234 19.664C114.234 18.304 113.97 17.276 113.442 16.58C112.914 15.876 112.17 15.524 111.21 15.524C110.522 15.524 109.958 15.68 109.518 15.992C109.086 16.304 108.762 16.768 108.546 17.384C108.338 18 108.23 18.76 108.222 19.664C108.222 21.248 108.462 22.384 108.942 23.072C109.43 23.752 110.198 24.092 111.246 24.092Z" fill="#1D1F2C"/>
<defs>
<clipPath id="clip0_110_39839">
<rect width="34" height="34" fill="white"/>
</clipPath>
</defs>
</svg>
